{
    "asset": {
        "generator": "COLLADA2GLTF",
        "version": "2.0"
    },
    "scenes": [
        {
            "nodes": [
                0
            ]
        }
    ],
    "scene": 0,
    "nodes": [
        {
            "children": [
                7,
                6,
                5,
                4,
                3,
                2,
                1
            ],
            "name": "Y_UP"
        },
        {
            "mesh": 0,
            "matrix": [
                1.0,
                0.0,
                0.0,
                0.0,
                -0.0,
                0.6819980144500732,
                0.7313539981842041,
                0.0,
                0.0,
                -0.7313539981842041,
                0.6819980144500732,
                0.0,
                -14.121878623962405,
                3.434493064880371,
                2.573267936706543,
                1.0
            ],
            "name": "Line004"
        },
        {
            "mesh": 1,
            "matrix": [
                1.0,
                0.0,
                0.0,
                0.0,
                0.0,
                -0.7313539981842041,
                0.6819980144500732,
                0.0,
                0.0,
                -0.6819980144500732,
                -0.7313539981842041,
                0.0,
                -14.12187671661377,
                -2.257441997528076,
                3.129019021987915,
                1.0
            ],
            "name": "Line003"
        },
        {
            "mesh": 2,
            "matrix": [
                1.0,
                0.0,
                0.0,
                0.0,
                -0.0,
                0.7313539981842041,
                -0.6819980144500732,
                0.0,
                -0.0,
                0.6819980144500732,
                0.7313539981842041,
                0.0,
                -14.121877670288086,
                2.9203970432281496,
                -3.0059518814086916,
                1.0
            ],
            "name": "Line002"
        },
        {
            "mesh": 3,
            "matrix": [
                1.0,
                0.0,
                0.0,
                0.0,
                0.0,
                -0.6819980144500732,
                -0.7313539981842041,
                0.0,
                -0.0,
                0.7313539981842041,
                -0.6819980144500732,
                0.0,
                -14.121877670288086,
                -2.746731996536255,
                -2.4797589778900148,
                1.0
            ],
            "name": "Line001"
        },
        {
            "mesh": 4,
            "matrix": [
                -0.0,
                0.7313539981842041,
                -0.6819980144500732,
                0.0,
                0.0,
                0.6819980144500732,
                0.7313539981842041,
                0.0,
                1.0,
                -0.0,
                -9.999999974752428e-7,
                0.0,
                21.704408645629884,
                0.297109991312027,
                0.02543099969625473,
                1.0
            ],
            "name": "Sphere001"
        },
        {
            "mesh": 5,
            "matrix": [
                -0.0,
                0.7313539981842041,
                -0.6819980144500732,
                0.0,
                0.0,
                0.6819980144500732,
                0.7313539981842041,
                0.0,
                1.0,
                -0.0,
                -9.999999974752428e-7,
                0.0,
                9.701678276062012,
                0.28607600927352908,
                0.015665000304579736,
                1.0
            ],
            "name": "Cone001"
        },
        {
            "mesh": 6,
            "matrix": [
                -0.0,
                0.7313539981842041,
                -0.6819980144500732,
                0.0,
                0.0,
                0.6819980144500732,
                0.7313539981842041,
                0.0,
                1.0,
                -0.0,
                -9.999999974752428e-7,
                0.0,
                -20.27042007446289,
                0.34693798422813418,
                0.061514001339674,
                1.0
            ],
            "name": "Cylinder001"
        }
    ],
    "meshes": [
        {
            "primitives": [
                {
                    "attributes": {
                        "NORMAL": 1,
                        "POSITION": 2
                    },
                    "indices": 0,
                    "mode": 4
                }
            ],
            "name": "Line004Mesh"
        },
        {
            "primitives": [
                {
                    "attributes": {
                        "NORMAL": 4,
                        "POSITION": 5
                    },
                    "indices": 3,
                    "mode": 4
                }
            ],
            "name": "Line003Mesh"
        },
        {
            "primitives": [
                {
                    "attributes": {
                        "NORMAL": 7,
                        "POSITION": 8
                    },
                    "indices": 6,
                    "mode": 4
                }
            ],
            "name": "Line002Mesh"
        },
        {
            "primitives": [
                {
                    "attributes": {
                        "NORMAL": 10,
                        "POSITION": 11
                    },
                    "indices": 9,
                    "mode": 4
                }
            ],
            "name": "Line001Mesh"
        },
        {
            "primitives": [
                {
                    "attributes": {
                        "NORMAL": 13,
                        "POSITION": 14,
                        "TEXCOORD_0": 15
                    },
                    "indices": 12,
                    "mode": 4
                }
            ],
            "name": "Sphere001Mesh"
        },
        {
            "primitives": [
                {
                    "attributes": {
                        "NORMAL": 17,
                        "POSITION": 18,
                        "TEXCOORD_0": 19
                    },
                    "indices": 16,
                    "mode": 4
                }
            ],
            "name": "Cone001Mesh"
        },
        {
            "primitives": [
                {
                    "attributes": {
                        "NORMAL": 21,
                        "POSITION": 22,
                        "TEXCOORD_0": 23
                    },
                    "indices": 20,
                    "mode": 4
                }
            ],
            "name": "Cylinder001Mesh"
        }
    ],
    "accessors": [
        {
            "bufferView": 0,
            "byteOffset": 0,
            "componentType": 5123,
            "count": 324,
            "max": [
                119
            ],
            "min": [
                0
            ],
            "type": "SCALAR"
        },
        {
            "bufferView": 1,
            "byteOffset": 0,
            "componentType": 5126,
            "count": 120,
            "max": [
                0.8646249771118164,
                1.0,
                1.0
            ],
            "min": [
                -0.7513179779052734,
                -1.0,
                -1.0
            ],
            "type": "VEC3"
        },
        {
            "bufferView": 1,
            "byteOffset": 1440,
            "componentType": 5126,
            "count": 120,
            "max": [
                4.365653038024902,
                1.59142005443573,
                1.0
            ],
            "min": [
                -4.838778018951416,
                -1.59142005443573,
                0.0
            ],
            "type": "VEC3"
        },
        {
            "bufferView": 0,
            "byteOffset": 648,
            "componentType": 5123,
            "count": 324,
            "max": [
                119
            ],
            "min": [
                0
            ],
            "type": "SCALAR"
        },
        {
            "bufferView": 1,
            "byteOffset": 2880,
            "componentType": 5126,
            "count": 120,
            "max": [
                0.8646249771118164,
                1.0,
                1.0
            ],
            "min": [
                -0.7513179779052734,
                -1.0,
                -1.0
            ],
            "type": "VEC3"
        },
        {
            "bufferView": 1,
            "byteOffset": 4320,
            "componentType": 5126,
            "count": 120,
            "max": [
                4.365653038024902,
                1.59142005443573,
                1.0
            ],
            "min": [
                -4.838778018951416,
                -1.59142005443573,
                0.0
            ],
            "type": "VEC3"
        },
        {
            "bufferView": 0,
            "byteOffset": 1296,
            "componentType": 5123,
            "count": 324,
            "max": [
                119
            ],
            "min": [
                0
            ],
            "type": "SCALAR"
        },
        {
            "bufferView": 1,
            "byteOffset": 5760,
            "componentType": 5126,
            "count": 120,
            "max": [
                0.8646249771118164,
                1.0,
                1.0
            ],
            "min": [
                -0.7513179779052734,
                -1.0,
                -1.0
            ],
            "type": "VEC3"
        },
        {
            "bufferView": 1,
            "byteOffset": 7200,
            "componentType": 5126,
            "count": 120,
            "max": [
                4.365653038024902,
                1.59142005443573,
                1.0
            ],
            "min": [
                -4.838778018951416,
                -1.59142005443573,
                0.0
            ],
            "type": "VEC3"
        },
        {
            "bufferView": 0,
            "byteOffset": 1944,
            "componentType": 5123,
            "count": 324,
            "max": [
                119
            ],
            "min": [
                0
            ],
            "type": "SCALAR"
        },
        {
            "bufferView": 1,
            "byteOffset": 8640,
            "componentType": 5126,
            "count": 120,
            "max": [
                0.8646249771118164,
                1.0,
                1.0
            ],
            "min": [
                -0.7513179779052734,
                -1.0,
                -1.0
            ],
            "type": "VEC3"
        },
        {
            "bufferView": 1,
            "byteOffset": 10080,
            "componentType": 5126,
            "count": 120,
            "max": [
                4.365653038024902,
                1.59142005443573,
                1.0
            ],
            "min": [
                -4.838778018951416,
                -1.59142005443573,
                0.0
            ],
            "type": "VEC3"
        },
        {
            "bufferView": 0,
            "byteOffset": 2592,
            "componentType": 5123,
            "count": 2880,
            "max": [
                558
            ],
            "min": [
                0
            ],
            "type": "SCALAR"
        },
        {
            "bufferView": 1,
            "byteOffset": 11520,
            "componentType": 5126,
            "count": 559,
            "max": [
                1.0,
                1.0,
                1.0
            ],
            "min": [
                -1.0,
                -1.0,
                -1.0
            ],
            "type": "VEC3"
        },
        {
            "bufferView": 1,
            "byteOffset": 18228,
            "componentType": 5126,
            "count": 559,
            "max": [
                1.1904070377349854,
                1.1904070377349854,
                1.1904070377349854
            ],
            "min": [
                -1.1904070377349854,
                -1.1904070377349854,
                -1.1904070377349854
            ],
            "type": "VEC3"
        },
        {
            "bufferView": 2,
            "byteOffset": 0,
            "componentType": 5126,
            "count": 559,
            "max": [
                1.0,
                1.0
            ],
            "min": [
                0.0,
                0.0
            ],
            "type": "VEC2"
        },
        {
            "bufferView": 0,
            "byteOffset": 8352,
            "componentType": 5123,
            "count": 864,
            "max": [
                201
            ],
            "min": [
                0
            ],
            "type": "SCALAR"
        },
        {
            "bufferView": 1,
            "byteOffset": 24936,
            "componentType": 5126,
            "count": 202,
            "max": [
                0.9738410115242004,
                0.9738410115242004,
                1.0
            ],
            "min": [
                -0.9738410115242004,
                -0.9738410115242004,
                -1.0
            ],
            "type": "VEC3"
        },
        {
            "bufferView": 1,
            "byteOffset": 27360,
            "componentType": 5126,
            "count": 202,
            "max": [
                4.0,
                4.0,
                12.0
            ],
            "min": [
                -4.0,
                -4.0,
                0.0
            ],
            "type": "VEC3"
        },
        {
            "bufferView": 2,
            "byteOffset": 4472,
            "componentType": 5126,
            "count": 202,
            "max": [
                1.0,
                1.0
            ],
            "min": [
                -0.0,
                0.0
            ],
            "type": "VEC2"
        },
        {
            "bufferView": 0,
            "byteOffset": 10080,
            "componentType": 5123,
            "count": 216,
            "max": [
                77
            ],
            "min": [
                0
            ],
            "type": "SCALAR"
        },
        {
            "bufferView": 1,
            "byteOffset": 29784,
            "componentType": 5126,
            "count": 78,
            "max": [
                1.0,
                0.9848079681396484,
                1.0
            ],
            "min": [
                -1.0,
                -0.9848079681396484,
                -1.0
            ],
            "type": "VEC3"
        },
        {
            "bufferView": 1,
            "byteOffset": 30720,
            "componentType": 5126,
            "count": 78,
            "max": [
                4.0,
                3.939230918884278,
                30.0
            ],
            "min": [
                -4.0,
                -3.939230918884278,
                0.0
            ],
            "type": "VEC3"
        },
        {
            "bufferView": 2,
            "byteOffset": 6088,
            "componentType": 5126,
            "count": 78,
            "max": [
                0.9722219705581664,
                1.0
            ],
            "min": [
                -0.02777799963951111,
                0.0
            ],
            "type": "VEC2"
        }
    ],
    "bufferViews": [
        {
            "buffer": 0,
            "byteOffset": 38368,
            "byteLength": 10512,
            "target": 34963
        },
        {
            "buffer": 0,
            "byteOffset": 0,
            "byteLength": 31656,
            "byteStride": 12,
            "target": 34962
        },
        {
            "buffer": 0,
            "byteOffset": 31656,
            "byteLength": 6712,
            "byteStride": 8,
            "target": 34962
        }
    ],
    "buffers": [
        {
            "byteLength": 48880,
            "uri": "data:application/octet-stream;base64,"
        }
    ]
}
